<?xml version="1.0" standalone="no"?>
<!DOCTYPE svg PUBLIC "-//W3C//DTD SVG 20010904//EN"
 "http://www.w3.org/TR/2001/REC-SVG-20010904/DTD/svg10.dtd">
<svg version="1.0" xmlns="http://www.w3.org/2000/svg"
 width="700.000000pt" height="700.000000pt" viewBox="0 0 700.000000 700.000000"
 preserveAspectRatio="xMidYMid meet">
<metadata>
Created by potrace 1.11, written by Peter Selinger 2001-2013
</metadata>
<g transform="translate(0.000000,700.000000) scale(0.100000,-0.100000)"
fill="#000000" stroke="none">
<path d="M685 6983 c-311 -66 -564 -307 -661 -628 -18 -57 -19 -186 -22 -2815
-2 -1970 0 -2773 8 -2820 59 -347 336 -631 686 -705 104 -22 5504 -22 5608 0
314 67 557 288 663 605 l28 85 0 2785 c0 3158 9 2830 -86 3025 -86 178 -214
307 -393 394 -193 95 144 85 -2991 88 -2428 1 -2779 0 -2840 -14z m4138 -1225
c25 -23 1269 -2171 1290 -2228 8 -21 8 -38 1 -58 -21 -55 -1267 -2208 -1291
-2229 l-24 -23 -1299 0 -1299 0 -24 23 c-24 22 -1269 2172 -1290 2228 -8 21
-8 37 0 59 21 57 1265 2205 1290 2228 l24 22 1299 0 1299 0 24 -22z"/>
<path d="M2462 5581 c2 -5 140 -168 308 -361 168 -193 310 -359 317 -367 10
-13 101 36 650 353 351 202 642 371 647 376 6 4 -426 8 -958 8 -578 0 -966 -4
-964 -9z"/>
<path d="M2330 4910 c0 -406 3 -511 13 -507 33 13 577 333 578 340 0 9 -569
670 -582 675 -5 2 -9 -227 -9 -508z"/>
<path d="M3520 4859 c-1053 -608 -1009 -581 -995 -586 20 -6 1154 -223 1167
-223 8 0 177 281 394 657 439 759 407 703 396 703 -4 0 -437 -248 -962 -551z"/>
<path d="M2092 5243 c-83 -142 -712 -1234 -777 -1346 -37 -65 -66 -120 -64
-122 2 -1 54 26 114 61 61 36 260 151 443 256 l332 192 0 513 c0 282 -2 513
-5 513 -2 0 -22 -30 -43 -67z"/>
<path d="M4263 4629 l-393 -680 391 -452 c216 -249 396 -453 400 -455 5 -2 9
507 9 1132 0 625 -3 1136 -7 1136 -5 0 -185 -306 -400 -681z"/>
<path d="M4860 4568 l0 -746 163 -31 c89 -17 303 -58 476 -91 173 -33 318 -59
323 -58 7 3 -931 1640 -953 1663 -5 5 -9 -282 -9 -737z"/>
<path d="M2510 4064 c13 -16 187 -218 689 -799 52 -60 95 -111 96 -111 0 -1
180 -36 400 -79 220 -42 490 -94 599 -116 110 -21 201 -37 203 -35 3 2 -498
585 -768 893 -31 36 56 17 -864 193 -170 33 -323 63 -340 66 -28 6 -29 5 -15
-12z"/>
<path d="M1700 3808 c-467 -269 -445 -256 -439 -262 7 -8 869 -169 874 -164 3
3 4 156 3 341 l-3 336 -435 -251z"/>
<path d="M2330 2826 c0 -625 3 -1136 8 -1136 7 0 787 1347 787 1360 0 10 -774
904 -786 908 -5 2 -9 -449 -9 -1132z"/>
<path d="M4860 3279 c0 -187 3 -338 8 -336 78 46 808 467 834 481 35 20 49 36
30 36 -5 0 -195 36 -423 80 -228 44 -422 80 -431 80 -17 0 -18 -23 -18 -341z"/>
<path d="M1181 3338 c33 -62 942 -1634 950 -1642 5 -6 9 294 9 737 0 411 -3
747 -6 747 -3 0 -215 41 -471 90 -256 50 -472 90 -480 90 -11 0 -11 -4 -2 -22z"/>
<path d="M5303 2972 l-443 -256 0 -515 c0 -307 4 -511 9 -505 16 16 884 1525
880 1528 -2 2 -203 -111 -446 -252z"/>
<path d="M2920 2303 c-206 -357 -383 -663 -394 -682 -18 -32 -19 -34 -3 -28
17 6 1558 894 1840 1059 65 38 117 71 115 73 -5 5 -1148 225 -1169 225 -11 0
-141 -216 -389 -647z"/>
<path d="M4430 2469 c-124 -72 -255 -148 -292 -170 l-67 -40 292 -339 c160
-186 295 -339 300 -339 4 -1 7 229 7 509 0 281 -3 510 -7 510 -5 0 -109 -59
-233 -131z"/>
<path d="M3257 1791 c-350 -202 -640 -371 -644 -374 -3 -4 429 -7 961 -7 608
0 966 4 964 10 -4 11 -628 734 -637 737 -3 2 -293 -163 -644 -366z"/>
</g>
</svg>
